<svg width="20" height="20" viewBox="0 0 48 48" xmlns="http://www.w3.org/2000/svg">
  <g>
    <path fill="#4285F4" d="M43.6 20.5H42V20H24v8h11.3C34.7 33.1 29.8 36 24 36c-6.6 0-12-5.4-12-12s5.4-12 12-12c3.1 0 5.9 1.1 8.1 2.9l6.4-6.4C34.1 6.5 29.3 4.5 24 4.5 13.5 4.5 4.5 13.5 4.5 24S13.5 43.5 24 43.5c10.5 0 19.5-8.5 19.5-19.5 0-1.3-.1-2.7-.3-4z"/>
    <path fill="#34A853" d="M6.3 14.7l7 5.1C15.5 16.1 19.4 13.5 24 13.5c3.1 0 5.9 1.1 8.1 2.9l6.4-6.4C34.1 6.5 29.3 4.5 24 4.5c-7.2 0-13.3 4.1-16.7 10.2z"/>
    <path fill="#FBBC05" d="M24 43.5c5.8 0 10.7-1.9 14.3-5.2l-6.6-5.4c-2 1.4-4.6 2.1-7.7 2.1-5.7 0-10.5-3.9-12.2-9.1l-7 5.4C7.1 39.1 14.9 43.5 24 43.5z"/>
    <path fill="#EA4335" d="M43.6 20.5H42V20H24v8h11.3c-1.1 3.1-4.1 5.5-7.7 5.5-2.2 0-4.2-.7-5.7-1.9l-7 5.4C18.5 41.1 21.1 43.5 24 43.5c5.8 0 10.7-1.9 14.3-5.2l-6.6-5.4c-2 1.4-4.6 2.1-7.7 2.1-5.7 0-10.5-3.9-12.2-9.1l-7 5.4C7.1 39.1 14.9 43.5 24 43.5z"/>
  </g>
</svg>